<svg width="100" height="100" viewBox="0 0 244 279" fill="none" xmlns="http://www.w3.org/2000/svg">
<g id="Logo">
<g id="Front">
<path id="vectorChico" fill-rule="evenodd" clip-rule="evenodd" d="M107.772 7.60274C144.594 10.4827 180.985 34.5851 187.478 70.5H243V93.5H177H165.5V82C165.5 56.2078 139.601 33.1624 105.978 30.5327C89.8119 29.2683 72.9406 33.0408 58.3327 43.347C44.0539 53.421 31.1988 70.2637 23.4997 96.5073C23.4971 103.425 23.4785 110.472 23.4599 117.53V117.531C23.4013 139.787 23.3423 162.162 23.7828 181.002C24.0786 193.654 24.5945 204.376 25.4423 212.205C25.8697 216.152 26.3465 219.018 26.8177 220.894C26.8674 221.092 26.9147 221.269 26.9591 221.427C75.3351 262.757 123.473 261.38 159.849 245.808C178.487 237.83 194.05 226.087 204.833 214.27C210.22 208.366 214.258 202.615 216.896 197.512C219.601 192.279 220.5 188.382 220.5 186C220.5 184.101 220.014 183.185 219.494 182.54C218.822 181.707 217.401 180.529 214.491 179.369C208.393 176.938 198.893 175.783 186.614 175.637C175.848 175.51 164.127 176.145 152.377 176.781L152.376 176.781C150.997 176.856 149.616 176.931 148.237 177.004C137.491 177.577 126.605 178.093 117.231 177.753L129.749 154.78C135.051 154.646 140.843 154.366 147.013 154.037C148.379 153.964 149.762 153.889 151.158 153.813C162.785 153.182 175.306 152.502 186.886 152.639C199.607 152.79 212.732 153.907 223.009 158.004C228.287 160.108 233.491 163.258 237.397 168.101C241.455 173.132 243.5 179.241 243.5 186C243.5 193.368 240.993 200.983 237.327 208.074C233.594 215.295 228.296 222.679 221.823 229.773C208.887 243.95 190.638 257.647 168.901 266.952C124.879 285.798 66.5972 286.488 10.4447 237.555C8.16948 235.573 6.91786 233.189 6.2372 231.663C5.4829 229.972 4.93342 228.18 4.51077 226.498C3.66428 223.128 3.05041 219.062 2.57601 214.682C1.62034 205.857 1.08855 194.348 0.789065 181.539C0.34093 162.372 0.401244 139.541 0.460269 117.198C0.480206 109.652 0.499994 102.161 0.499994 94.8855V93.2947L0.931823 91.7637C9.7872 60.3673 25.5913 38.2986 45.0735 24.5535C64.4969 10.8499 86.8131 5.96352 107.772 7.60274Z" fill="#D2D2D3"/>
</g>
<g id="Back">
<path id="vectorMain" fill-rule="evenodd" clip-rule="evenodd" d="M175.129 20.3213C177.408 20.5539 179.625 20.9117 181.769 21.3804C204.062 26.2536 217.8 42.3658 218.081 56.7321L238.078 56.34C237.559 29.9063 214.297 8.01852 186.04 1.84176C172.336 -1.15386 157.23 -0.638369 142 4.44617L175.129 20.3213Z" fill="#D2D2D3"/>
<path id="vectorMedio" fill-rule="evenodd" clip-rule="evenodd" d="M103.318 40L55.846 88.6058L53 91.5197V95.5929V227.343L73 235.921V99.6661L122.312 49.1765L103.318 40Z" fill="#D2D2D3"/>
</g>
</g>
</svg>
