<svg width="403" height="426" viewBox="0 0 403 426" fill="none" xmlns="http://www.w3.org/2000/svg">
<g id="Skils">
<g id="Python">
<path id="Vector" d="M274.835 273.195C265.202 273.195 265.804 278.687 265.804 278.687L265.815 284.375H275.006V286.084H262.164C262.164 286.084 256 285.165 256 297.941C256 310.718 261.38 310.265 261.38 310.265H264.59V304.336C264.59 304.336 264.417 297.264 269.884 297.264H279.001C279.001 297.264 284.123 297.372 284.123 290.756V279.816C284.123 279.816 284.901 273.195 274.835 273.195ZM269.766 277.021C270.681 277.021 271.42 277.993 271.42 279.195C271.42 280.397 270.681 281.369 269.766 281.369C268.852 281.369 268.113 280.397 268.113 279.195C268.113 277.993 268.852 277.021 269.766 277.021Z" fill="url(#paint0_linear_11_809)"/>
<path id="Vector_2" d="M275.108 322.815C284.74 322.815 284.139 317.324 284.139 317.324L284.128 311.635H274.936V309.927H287.779C287.779 309.927 293.943 310.846 293.943 298.069C293.943 285.293 288.563 285.746 288.563 285.746H285.352V291.675C285.352 291.675 285.525 298.747 280.058 298.747H270.942C270.942 298.747 265.82 298.638 265.82 305.255V316.195C265.82 316.195 265.042 322.815 275.108 322.815ZM280.176 318.99C279.262 318.99 278.523 318.018 278.523 316.816C278.523 315.614 279.262 314.642 280.176 314.642C281.091 314.642 281.83 315.614 281.83 316.816C281.83 318.018 281.091 318.99 280.176 318.99Z" fill="url(#paint1_linear_11_809)"/>
</g>
<g id="TypeScript" clip-path="url(#clip0_11_809)">
<g id="Group">
<path id="Vector_3" d="M103.906 105H146.094C148.251 105 150 106.749 150 108.906V151.094C150 153.251 148.251 155 146.094 155H103.906C101.749 155 100 153.251 100 151.094V108.906C100 106.749 101.749 105 103.906 105Z" fill="#3178C6"/>
<path id="Vector_4" d="M129.398 144.155V149.55C130.275 149.999 131.313 150.337 132.511 150.561C133.709 150.786 134.971 150.898 136.299 150.898C137.592 150.898 138.821 150.775 139.985 150.528C141.149 150.28 142.17 149.873 143.047 149.305C143.924 148.738 144.619 147.996 145.131 147.08C145.643 146.164 145.898 145.032 145.898 143.683C145.898 142.706 145.752 141.849 145.46 141.112C145.167 140.376 144.746 139.722 144.194 139.149C143.643 138.575 142.982 138.061 142.212 137.606C141.442 137.151 140.573 136.721 139.605 136.317C138.897 136.024 138.261 135.741 137.699 135.465C137.137 135.19 136.658 134.909 136.265 134.622C135.871 134.336 135.567 134.032 135.354 133.712C135.14 133.392 135.033 133.029 135.033 132.625C135.033 132.254 135.129 131.92 135.32 131.622C135.511 131.324 135.781 131.068 136.13 130.855C136.479 130.641 136.906 130.475 137.412 130.357C137.918 130.239 138.481 130.18 139.099 130.18C139.549 130.18 140.024 130.214 140.525 130.281C141.025 130.349 141.529 130.453 142.035 130.593C142.541 130.734 143.033 130.911 143.511 131.124C143.989 131.338 144.431 131.585 144.836 131.866V126.826C144.014 126.511 143.117 126.278 142.145 126.126C141.172 125.974 140.055 125.898 138.796 125.898C137.513 125.898 136.299 126.036 135.151 126.312C134.004 126.587 132.995 127.017 132.123 127.601C131.251 128.186 130.562 128.93 130.056 129.835C129.55 130.739 129.297 131.821 129.297 133.08C129.297 134.687 129.761 136.058 130.689 137.193C131.617 138.328 133.025 139.289 134.915 140.076C135.657 140.379 136.349 140.677 136.99 140.969C137.631 141.262 138.185 141.565 138.652 141.879C139.119 142.194 139.487 142.537 139.757 142.908C140.027 143.279 140.162 143.7 140.162 144.172C140.162 144.521 140.078 144.844 139.909 145.142C139.74 145.439 139.484 145.698 139.141 145.917C138.798 146.136 138.371 146.307 137.859 146.431C137.347 146.555 136.748 146.617 136.062 146.617C134.893 146.617 133.734 146.412 132.587 146.001C131.439 145.591 130.377 144.976 129.398 144.155ZM120.407 130.731H127.344V126.289H108.008V130.731H114.911V150.508H120.407V130.731Z" fill="white"/>
</g>
</g>
<g id="Javascript" clip-path="url(#clip1_11_809)">
<g id="Group_2">
<path id="Shape" fill-rule="evenodd" clip-rule="evenodd" d="M75 189H125V239H75V189V189Z" fill="#F7DF1E"/>
<path id="Shape_2" fill-rule="evenodd" clip-rule="evenodd" d="M88.1469 230.784L91.9732 228.468C92.7114 229.777 93.3829 230.884 94.9936 230.884C96.5376 230.884 97.511 230.28 97.511 227.931V211.955H102.21V227.997C102.21 232.864 99.357 235.079 95.195 235.079C91.4362 235.079 89.2543 233.133 88.1468 230.783" fill="black"/>
<path id="Shape_3" fill-rule="evenodd" clip-rule="evenodd" d="M104.762 230.28L108.588 228.065C109.595 229.71 110.904 230.918 113.22 230.918C115.167 230.918 116.408 229.945 116.408 228.602C116.408 226.991 115.133 226.42 112.985 225.481L111.81 224.977C108.42 223.534 106.171 221.722 106.171 217.896C106.171 214.371 108.856 211.686 113.052 211.686C116.039 211.686 118.187 212.727 119.731 215.445L116.072 217.795C115.267 216.352 114.394 215.781 113.052 215.781C111.676 215.781 110.803 216.654 110.803 217.795C110.803 219.204 111.676 219.775 113.689 220.648L114.864 221.151C118.858 222.863 121.107 224.608 121.107 228.535C121.107 232.764 117.784 235.08 113.32 235.08C108.957 235.08 106.138 232.999 104.762 230.28" fill="black"/>
</g>
</g>
<g id="Flutter" clip-path="url(#clip2_11_809)">
<g id="Group_3">
<path id="Vector_5" d="M51.7816 293L26.8828 317.899L34.5895 325.605L67.1951 293H51.7816Z" fill="#47C5FB"/>
<path id="Vector_6" d="M51.6082 315.961L38.2766 329.293L46.0123 337.144L53.7047 329.452L67.1952 315.961H51.6082Z" fill="#47C5FB"/>
<path id="Vector_7" d="M46.0123 337.144L51.8683 343H67.1951L53.7046 329.452L46.0123 337.144Z" fill="#00569E"/>
<path id="Vector_8" d="M38.1897 329.379L45.8965 321.673L53.7043 329.452L46.012 337.144L38.1897 329.379Z" fill="#00B5F8"/>
<path id="Vector_9" d="M46.0123 337.144L52.4177 335.019L53.0539 330.102L46.0123 337.144Z" fill="url(#paint2_linear_11_809)" fill-opacity="0.8"/>
</g>
</g>
<g id="HTML5">
<g id="symbol">
<path id="Shape_4" fill-rule="evenodd" clip-rule="evenodd" d="M256.942 150.002L252.93 105H297.017L293.001 149.995L274.946 155L256.942 150.002Z" fill="#E44D26"/>
<path id="Shape_5" fill-rule="evenodd" clip-rule="evenodd" d="M274.973 151.174L289.562 147.13L292.994 108.68H274.973V151.174Z" fill="#F16529"/>
<g id="Union">
<path d="M267.67 125.37H274.973V130.889H262.622L261.134 114.199H274.973V119.718H267.166L267.67 125.37Z" fill="#EBEBEB"/>
<path d="M274.949 139.711L274.973 139.704V145.447L274.948 145.454L263.642 142.315L262.869 133.649H268.409L268.802 138.051L274.949 139.711Z" fill="#EBEBEB"/>
</g>
<g id="Union_2">
<path d="M274.954 114.199H288.78L288.286 119.718H274.954V114.199Z" fill="white"/>
<path d="M274.954 130.889V125.37H287.784L287.649 126.852L286.269 142.315L274.954 145.451V139.709L281.11 138.047L281.751 130.889H274.954Z" fill="white"/>
</g>
</g>
</g>
<g id="CSS3">
<g id="symbol_2">
<path id="Shape_6" fill-rule="evenodd" clip-rule="evenodd" d="M181.942 343.002L177.93 298H222.019L218.002 342.994L199.948 348L181.942 343.002Z" fill="#0071BC"/>
<path id="Shape_7" fill-rule="evenodd" clip-rule="evenodd" d="M200.011 344.171L214.582 340.163L217.996 301.748H200.011V344.171Z" fill="#29ABE2"/>
<path id="Shape_8" fill-rule="evenodd" clip-rule="evenodd" d="M187.114 318.281L187.597 323.792L200.011 318.281V312.761L187.114 318.281Z" fill="#B3B3B3"/>
<path id="Shape_9" fill-rule="evenodd" clip-rule="evenodd" d="M213.76 306.869L200.011 312.761V318.281L213.286 312.38L213.76 306.869Z" fill="#E6E6E6"/>
<path id="Shape_10" fill-rule="evenodd" clip-rule="evenodd" d="M200.011 332.701L199.969 332.707L193.812 331.054L193.41 326.658H187.869L188.642 335.318L199.967 338.454L200.011 338.444V332.701Z" fill="#E6E6E6"/>
<path id="Shape_11" fill-rule="evenodd" clip-rule="evenodd" d="M200.011 318.281V323.792H206.752L206.139 330.998L200.011 332.706V338.448L211.299 335.312L212.785 318.281H200.011Z" fill="white"/>
<path id="Shape_12" fill-rule="evenodd" clip-rule="evenodd" d="M200.011 318.281H187.114L187.597 323.792H200.011V318.281Z" fill="#E6E6E6"/>
<path id="Shape_13" fill-rule="evenodd" clip-rule="evenodd" d="M200.011 312.38V306.869H199.955H186.134L186.623 312.38H200.011Z" fill="#E6E6E6"/>
<path id="Shape_14" fill-rule="evenodd" clip-rule="evenodd" d="M200.011 306.869V312.311V312.38H213.286L213.76 306.869H200.011Z" fill="white"/>
</g>
</g>
<g id="TailwindCSS">
<path id="Vector_10" d="M43 105.961C36.3333 105.961 32.1667 109.294 30.5 115.961C33 112.628 35.9167 111.378 39.25 112.211C41.1519 112.686 42.5112 114.066 44.0158 115.593C46.4669 118.081 49.3038 120.961 55.5 120.961C62.1667 120.961 66.3333 117.628 68 110.961C65.5 114.294 62.5833 115.544 59.25 114.711C57.3481 114.235 55.9888 112.856 54.4842 111.328C52.0331 108.84 49.1962 105.961 43 105.961ZM30.5 120.961C23.8333 120.961 19.6667 124.294 18 130.961C20.5 127.628 23.4167 126.378 26.75 127.211C28.6519 127.686 30.0112 129.066 31.5158 130.593C33.9669 133.081 36.8038 135.961 43 135.961C49.6667 135.961 53.8333 132.628 55.5 125.961C53 129.294 50.0833 130.544 46.75 129.711C44.8481 129.235 43.4888 127.856 41.9842 126.328C39.5331 123.84 36.6962 120.961 30.5 120.961Z" fill="url(#paint3_linear_11_809)"/>
</g>
<g id="Nodejs">
<path id="Shape_15" fill-rule="evenodd" clip-rule="evenodd" d="M315.044 84.3235C314.373 84.3235 313.746 84.1444 313.164 83.8309L307.209 80.2937C306.313 79.8012 306.761 79.6221 307.03 79.5325C308.238 79.1296 308.462 79.04 309.716 78.3236C309.85 78.2341 310.029 78.2788 310.164 78.3684L314.731 81.0997C314.91 81.1892 315.134 81.1892 315.268 81.0997L333.133 70.7567C333.312 70.6671 333.402 70.488 333.402 70.2641V49.6229C333.402 49.399 333.312 49.2199 333.133 49.1304L315.268 38.8321C315.089 38.7426 314.865 38.7426 314.731 38.8321L296.866 49.1304C296.687 49.2199 296.597 49.4438 296.597 49.6229V70.2641C296.597 70.4432 296.687 70.6671 296.866 70.7567L301.746 73.5775C304.388 74.9207 306.045 73.3536 306.045 71.7865V51.4139C306.045 51.1452 306.268 50.8766 306.582 50.8766H308.865C309.134 50.8766 309.403 51.1005 309.403 51.4139V71.7865C309.403 75.3237 307.477 77.3833 304.119 77.3833C303.089 77.3833 302.283 77.3833 300 76.264L295.299 73.5775C294.134 72.9059 293.418 71.6522 293.418 70.3089V49.6677C293.418 48.3244 294.134 47.0707 295.299 46.3991L313.164 36.0561C314.283 35.4292 315.805 35.4292 316.925 36.0561L334.79 46.3991C335.954 47.0707 336.671 48.3244 336.671 49.6677V70.3089C336.671 71.6522 335.954 72.9059 334.79 73.5775L316.925 83.9205C316.343 84.1891 315.671 84.3235 315.044 84.3235ZM320.552 70.1298C312.716 70.1298 311.104 66.5478 311.104 63.5031C311.104 63.2345 311.328 62.9658 311.641 62.9658H313.97C314.238 62.9658 314.462 63.1449 314.462 63.4136C314.82 65.7866 315.85 66.9508 320.596 66.9508C324.357 66.9508 325.969 66.1001 325.969 64.0852C325.969 62.921 325.522 62.0703 319.656 61.4882C314.776 60.9957 311.731 59.9211 311.731 56.0257C311.731 52.3989 314.776 50.2497 319.88 50.2497C325.611 50.2497 328.432 52.2198 328.79 56.5182C328.79 56.6525 328.745 56.7869 328.656 56.9212C328.566 57.0107 328.432 57.1003 328.298 57.1003H325.969C325.745 57.1003 325.522 56.9212 325.477 56.6973C324.94 54.2347 323.552 53.4288 319.88 53.4288C315.761 53.4288 315.268 54.8616 315.268 55.9361C315.268 57.2346 315.85 57.6376 321.402 58.354C326.91 59.0704 329.507 60.1002 329.507 63.9509C329.462 67.8911 326.238 70.1298 320.552 70.1298Z" fill="#539E43"/>
</g>
<g id="Redux">
<path id="vector" d="M247.042 33.6814C248.772 33.5053 250.084 32.0393 250.024 30.2798C249.965 28.5205 248.473 27.1129 246.684 27.1129H246.565C244.715 27.1716 243.284 28.6964 243.344 30.5143C243.403 31.3941 243.761 32.1564 244.298 32.6843C242.27 36.6136 239.168 39.4872 234.515 41.8917C231.354 43.5338 228.073 44.1203 224.792 43.7099C222.108 43.3579 220.02 42.1851 218.708 40.2496C216.799 37.376 216.62 34.2677 218.231 31.1595C219.364 28.9309 221.154 27.2888 222.287 26.4678C222.048 25.7054 221.69 24.4152 221.512 23.477C212.862 29.6348 213.757 37.9625 216.382 41.8917C218.35 44.8242 222.347 46.6421 226.761 46.6421C227.954 46.6421 229.147 46.5248 230.34 46.2317C237.975 44.7655 243.761 40.3083 247.042 33.6814V33.6814ZM257.54 26.4093C253.007 21.1897 246.326 18.3161 238.691 18.3161H237.737C237.2 17.2605 236.066 16.5566 234.814 16.5566H234.694C232.845 16.6153 231.414 18.14 231.473 19.9582C231.533 21.7175 233.024 23.125 234.814 23.125H234.933C236.245 23.0664 237.379 22.2453 237.856 21.131H238.929C243.463 21.131 247.758 22.4212 251.635 24.943C254.618 26.8784 256.765 29.4002 257.958 32.4497C258.972 34.9128 258.912 37.3173 257.839 39.37C256.168 42.4782 253.365 44.179 249.667 44.179C247.281 44.179 245.014 43.4751 243.821 42.9473C243.165 43.5338 241.972 44.4721 241.136 45.0587C243.702 46.2315 246.326 46.8767 248.831 46.8767C254.558 46.8767 258.793 43.7684 260.404 40.6602C262.133 37.2586 262.014 31.3941 257.54 26.4093V26.4093ZM227.238 34.6781C227.298 36.4376 228.789 37.8449 230.578 37.8449H230.698C232.547 37.7864 233.978 36.2615 233.919 34.4435C233.859 32.6841 232.368 31.2767 230.578 31.2767H230.459C230.34 31.2767 230.161 31.2767 230.042 31.3352C227.596 27.3473 226.582 23.0077 226.94 18.3159C227.178 14.7971 228.371 11.7475 230.459 9.22565C232.189 7.05574 235.529 6.00012 237.796 5.94162C244.119 5.82425 246.803 13.5655 246.982 16.6738C247.758 16.8497 249.07 17.2603 249.965 17.5535C249.249 8.05303 243.284 3.12671 237.558 3.12671C232.189 3.12671 227.238 6.93873 225.269 12.5687C222.526 20.0754 224.315 27.2888 227.655 32.9775C227.357 33.3879 227.178 34.0331 227.238 34.6783V34.6781Z" fill="#764ABC"/>
</g>
<g id="React">
<path id="Vector_11" d="M232.22 198.306C231.183 197.949 230.108 197.611 229.001 197.292C229.183 196.549 229.35 195.816 229.498 195.096C231.935 183.268 230.342 173.738 224.901 170.601C219.685 167.593 211.153 170.729 202.536 178.228C201.708 178.949 200.877 179.713 200.046 180.513C199.493 179.983 198.94 179.472 198.389 178.982C189.359 170.964 180.307 167.585 174.872 170.732C169.66 173.749 168.117 182.707 170.31 193.917C170.522 195 170.77 196.106 171.05 197.23C169.769 197.594 168.532 197.981 167.349 198.394C156.761 202.085 150 207.87 150 213.87C150 220.068 157.258 226.284 168.286 230.053C169.156 230.35 170.059 230.632 170.99 230.899C170.688 232.114 170.425 233.306 170.204 234.468C168.113 245.484 169.746 254.23 174.944 257.228C180.313 260.324 189.324 257.142 198.098 249.472C198.791 248.866 199.487 248.223 200.184 247.549C201.088 248.419 201.99 249.243 202.888 250.016C211.387 257.329 219.78 260.282 224.974 257.276C230.337 254.171 232.08 244.775 229.817 233.343C229.644 232.47 229.443 231.578 229.217 230.67C229.85 230.483 230.471 230.29 231.077 230.089C242.541 226.291 250 220.15 250 213.87C250 207.848 243.02 202.024 232.22 198.306ZM229.734 226.034C229.187 226.215 228.626 226.39 228.054 226.56C226.788 222.553 225.08 218.293 222.99 213.891C224.985 209.594 226.627 205.388 227.857 201.408C228.88 201.704 229.873 202.016 230.83 202.345C240.083 205.531 245.728 210.241 245.728 213.87C245.728 217.736 239.632 222.754 229.734 226.034ZM225.626 234.173C226.627 239.228 226.77 243.798 226.107 247.371C225.512 250.581 224.314 252.722 222.833 253.579C219.681 255.403 212.942 253.032 205.674 246.777C204.841 246.06 204.001 245.295 203.159 244.484C205.977 241.403 208.793 237.82 211.542 233.841C216.376 233.412 220.943 232.711 225.085 231.754C225.289 232.577 225.47 233.384 225.626 234.173ZM184.092 253.264C181.013 254.351 178.561 254.382 177.079 253.527C173.924 251.708 172.613 244.685 174.402 235.265C174.607 234.186 174.85 233.078 175.131 231.945C179.228 232.851 183.762 233.503 188.608 233.896C191.375 237.789 194.272 241.368 197.192 244.501C196.554 245.117 195.918 245.703 195.287 246.256C191.407 249.647 187.519 252.053 184.092 253.264ZM169.667 226.011C164.791 224.344 160.764 222.178 158.004 219.814C155.524 217.69 154.272 215.581 154.272 213.87C154.272 210.229 159.701 205.584 168.755 202.428C169.853 202.045 171.003 201.684 172.197 201.345C173.448 205.415 175.09 209.671 177.071 213.974C175.064 218.342 173.399 222.665 172.136 226.783C171.285 226.539 170.461 226.281 169.667 226.011ZM174.503 193.097C172.623 183.492 173.872 176.247 177.012 174.429C180.358 172.492 187.756 175.254 195.553 182.177C196.051 182.619 196.551 183.083 197.053 183.562C194.148 186.682 191.277 190.233 188.534 194.104C183.831 194.54 179.329 195.24 175.19 196.178C174.93 195.131 174.699 194.102 174.503 193.097ZM217.638 203.748C216.649 202.039 215.633 200.37 214.597 198.747C217.788 199.15 220.845 199.686 223.716 200.341C222.854 203.103 221.78 205.991 220.515 208.952C219.608 207.23 218.649 205.493 217.638 203.748ZM200.048 186.615C202.018 188.75 203.991 191.133 205.932 193.719C203.976 193.627 201.996 193.578 200 193.578C198.022 193.578 196.057 193.625 194.113 193.716C196.056 191.154 198.046 188.774 200.048 186.615ZM182.344 203.778C181.356 205.492 180.414 207.219 179.522 208.949C178.278 205.998 177.213 203.097 176.344 200.296C179.197 199.657 182.24 199.135 185.41 198.74C184.36 200.378 183.336 202.059 182.344 203.777V203.778ZM185.501 229.306C182.226 228.94 179.137 228.445 176.285 227.824C177.168 224.973 178.256 222.01 179.526 218.996C180.422 220.725 181.367 222.453 182.361 224.17H182.362C183.375 225.92 184.424 227.634 185.501 229.306ZM200.166 241.427C198.141 239.242 196.122 236.826 194.149 234.227C196.064 234.302 198.016 234.34 200 234.34C202.038 234.34 204.053 234.294 206.036 234.206C204.089 236.852 202.123 239.272 200.166 241.427ZM220.556 218.842C221.892 221.889 223.019 224.836 223.914 227.639C221.014 228.301 217.884 228.833 214.586 229.229C215.624 227.584 216.648 225.887 217.655 224.141C218.674 222.374 219.641 220.605 220.556 218.842ZM213.955 222.007C212.392 224.717 210.787 227.304 209.158 229.747C206.19 229.959 203.125 230.068 200 230.068C196.888 230.068 193.861 229.972 190.946 229.782C189.251 227.308 187.611 224.713 186.058 222.03H186.059C184.509 219.354 183.084 216.656 181.792 213.973C183.083 211.283 184.505 208.582 186.046 205.911L186.045 205.912C187.59 203.234 189.215 200.651 190.894 198.193C193.868 197.968 196.918 197.85 200 197.85H200C203.096 197.85 206.149 197.969 209.123 198.195C210.776 200.636 212.39 203.21 213.941 205.889C215.509 208.597 216.949 211.28 218.252 213.912C216.953 216.589 215.516 219.299 213.955 222.007ZM222.767 174.302C226.116 176.233 227.418 184.021 225.314 194.234C225.18 194.886 225.029 195.549 224.865 196.222C220.716 195.265 216.211 194.552 211.494 194.11C208.746 190.197 205.899 186.64 203.041 183.56C203.809 182.821 204.577 182.116 205.341 181.451C212.724 175.026 219.624 172.489 222.767 174.302ZM200 204.941C204.932 204.941 208.93 208.939 208.93 213.87C208.93 218.802 204.932 222.8 200 222.8C195.068 222.8 191.07 218.802 191.07 213.87C191.07 208.939 195.068 204.941 200 204.941Z" fill="#00D8FF"/>
</g>
<g id="Svelte">
<g id="Group_4">
<path id="Vector_12" d="M43.1518 234.616C38.5089 227.97 29.3392 226.001 22.7092 230.225L11.0651 237.646C7.88447 239.647 5.6937 242.895 5.03 246.594C4.47456 249.675 4.96276 252.854 6.41733 255.626C5.42062 257.138 4.74082 258.836 4.41902 260.618C3.74891 264.388 4.62548 268.269 6.85085 271.384C11.4947 278.03 20.6644 279.999 27.2934 275.775L38.9375 268.354C42.1184 266.353 44.3092 263.105 44.9726 259.406C45.528 256.325 45.0402 253.146 43.5863 250.374C44.5828 248.862 45.2623 247.163 45.5838 245.382C46.2543 241.612 45.3777 237.731 43.1519 234.616" fill="#FF3E00"/>
<path id="Vector_13" d="M21.5705 272.017C17.8161 272.993 13.8514 271.523 11.6403 268.336C10.3014 266.462 9.77393 264.127 10.1771 261.859C10.2447 261.491 10.3377 261.127 10.4554 260.772L10.6748 260.103L11.2715 260.541C12.6496 261.554 14.1905 262.324 15.8278 262.818L16.2607 262.949L16.2208 263.381C16.1679 263.996 16.3343 264.609 16.6906 265.113C17.356 266.073 18.5497 266.516 19.6804 266.223C19.9335 266.155 20.1748 266.049 20.3958 265.908L32.0436 258.486C32.6199 258.123 33.017 257.534 33.138 256.864C33.2587 256.181 33.0998 255.477 32.697 254.912C32.0312 253.952 30.8372 253.508 29.706 253.802C29.4532 253.869 29.2123 253.975 28.9915 254.116L24.5468 256.949C23.8159 257.414 23.0183 257.764 22.1816 257.988C18.4272 258.964 14.4626 257.495 12.2515 254.307C10.9126 252.433 10.3851 250.099 10.7883 247.831C11.1875 245.606 12.5055 243.652 14.4189 242.449L26.0657 235.026C26.7969 234.561 27.595 234.21 28.4324 233.986C32.1868 233.01 36.1514 234.48 38.3625 237.667C39.7014 239.541 40.2288 241.875 39.8257 244.143C39.7578 244.512 39.6648 244.875 39.5473 245.231L39.328 245.9L38.7315 245.462C37.3535 244.449 35.8125 243.679 34.175 243.185L33.7421 243.053L33.782 242.621C33.8344 242.007 33.668 241.393 33.3122 240.889C32.6468 239.929 31.4531 239.486 30.3224 239.78C30.0692 239.847 29.828 239.953 29.6069 240.094L17.9591 247.517C17.3829 247.88 16.986 248.468 16.8656 249.138C16.7442 249.822 16.9028 250.525 17.3058 251.09C17.9716 252.051 19.1656 252.494 20.2967 252.201C20.5498 252.133 20.791 252.027 21.0121 251.886L25.4562 249.054C26.1868 248.589 26.9844 248.238 27.8212 248.014C31.5756 247.038 35.5402 248.508 37.7513 251.695C39.0902 253.569 39.6177 255.904 39.2145 258.172C38.815 260.396 37.4972 262.35 35.5839 263.554L23.9371 270.977C23.2059 271.442 22.4077 271.793 21.5703 272.017" fill="white"/>
</g>
</g>
<g id="Github">
<path id="Shape_16" fill-rule="evenodd" clip-rule="evenodd" d="M164 377.172C150.518 377.172 139.586 388.102 139.586 401.586C139.586 412.373 146.581 421.525 156.282 424.753C157.502 424.979 157.95 424.223 157.95 423.578C157.95 422.996 157.927 421.073 157.917 419.033C151.125 420.51 149.692 416.152 149.692 416.152C148.581 413.33 146.981 412.58 146.981 412.58C144.766 411.065 147.148 411.096 147.148 411.096C149.599 411.268 150.89 413.612 150.89 413.612C153.068 417.344 156.602 416.265 157.995 415.641C158.214 414.063 158.847 412.986 159.545 412.377C154.122 411.759 148.422 409.666 148.422 400.311C148.422 397.646 149.375 395.468 150.937 393.758C150.684 393.143 149.848 390.66 151.174 387.297C151.174 387.297 153.224 386.641 157.889 389.799C159.837 389.259 161.925 388.987 164 388.978C166.075 388.987 168.165 389.259 170.116 389.799C174.776 386.641 176.823 387.297 176.823 387.297C178.152 390.66 177.316 393.143 177.063 393.758C178.628 395.468 179.575 397.646 179.575 400.311C179.575 409.688 173.864 411.753 168.428 412.357C169.303 413.115 170.084 414.601 170.084 416.878C170.084 420.145 170.055 422.774 170.055 423.578C170.055 424.228 170.495 424.989 171.732 424.75C181.428 421.518 188.414 412.369 188.414 401.586C188.414 388.102 177.483 377.172 164 377.172ZM148.73 411.951C148.676 412.072 148.485 412.108 148.311 412.025C148.134 411.945 148.035 411.78 148.092 411.658C148.145 411.533 148.336 411.499 148.513 411.582C148.69 411.662 148.791 411.829 148.73 411.951ZM149.931 413.022C149.814 413.13 149.587 413.08 149.432 412.909C149.273 412.739 149.243 412.511 149.361 412.402C149.481 412.294 149.702 412.344 149.862 412.515C150.021 412.687 150.052 412.913 149.931 413.022ZM150.755 414.393C150.605 414.497 150.36 414.4 150.209 414.182C150.06 413.965 150.06 413.705 150.213 413.601C150.364 413.496 150.605 413.59 150.758 413.806C150.907 414.026 150.907 414.287 150.755 414.393ZM152.148 415.981C152.014 416.128 151.729 416.089 151.521 415.888C151.307 415.691 151.248 415.411 151.382 415.264C151.517 415.116 151.804 415.157 152.014 415.357C152.226 415.554 152.291 415.835 152.148 415.981ZM153.949 416.517C153.89 416.708 153.615 416.795 153.339 416.714C153.063 416.63 152.882 416.406 152.938 416.213C152.995 416.02 153.271 415.93 153.549 416.017C153.825 416.1 154.006 416.322 153.949 416.517ZM155.998 416.744C156.005 416.946 155.77 417.113 155.48 417.116C155.188 417.123 154.952 416.96 154.949 416.762C154.949 416.558 155.178 416.393 155.47 416.388C155.76 416.382 155.998 416.544 155.998 416.744ZM158.011 416.667C158.046 416.864 157.844 417.065 157.556 417.119C157.273 417.171 157.01 417.05 156.974 416.855C156.939 416.653 157.145 416.452 157.428 416.4C157.716 416.349 157.975 416.467 158.011 416.667Z" fill="#161614"/>
</g>
<g id="bitbucket">
<g id="Group_5">
<path id="Vector_14" d="M354.623 162.539C354.149 162.533 353.698 162.737 353.389 163.095C353.08 163.454 352.945 163.93 353.021 164.398L359.821 205.681C359.996 206.724 360.895 207.491 361.952 207.5H394.577C395.37 207.51 396.052 206.937 396.179 206.154L402.979 164.406C403.055 163.938 402.92 163.462 402.611 163.103C402.302 162.745 401.851 162.541 401.377 162.547L354.623 162.539ZM383.259 192.377H372.846L370.026 177.646H385.782L383.259 192.377Z" fill="#2684FF"/>
<path id="Vector_15" d="M400.776 177.625H385.753L383.232 192.344H372.827L360.541 206.927C360.931 207.263 361.427 207.451 361.942 207.455H394.549C395.342 207.465 396.023 206.893 396.149 206.11L400.776 177.625Z" fill="url(#paint4_linear_11_809)"/>
</g>
</g>
<g id="Docker">
<path id="symbol_3" d="M352.975 310.062L354.054 310.843C355.931 312.357 357.01 314.066 357.245 316.019C359.262 315.628 361.842 315.921 362.968 316.703L364 317.337L363.812 317.728C363.484 318.46 363.39 318.656 363.343 318.753C361.514 322.415 357.901 322.464 356.212 322.415C351.943 333.108 342.842 339.016 330.551 339.016C324.875 339.016 320.559 337.21 317.65 333.645C313.803 328.958 313.803 322.855 314.132 320.902L314.226 320.511H348.143C349.926 320.511 351.287 320.023 351.943 319.632C351.24 318.558 351.005 317.337 350.958 316.654C350.818 314.701 351.287 312.65 352.225 311.185L352.975 310.062ZM323.045 314.652V319.534H317.885V314.652H323.045ZM329.144 314.652V319.534H323.983V314.652H329.144ZM335.242 314.652V319.534H330.082V314.652H335.242ZM341.341 314.652V319.534H336.181V314.652H341.341ZM347.44 314.652V319.534H342.279V314.652H347.44ZM341.341 308.793V313.675H336.181V308.793H341.341ZM335.242 308.793V313.675H330.082V308.793H335.242ZM329.144 308.793V313.675H323.983V308.793H329.144ZM341.341 302.934V307.816H336.181V302.934H341.341Z" fill="#2396ED"/>
</g>
<g id="npm" clip-path="url(#clip3_11_809)">
<g id="Group_6">
<path id="Vector_16" d="M275 239V189H325V239H275Z" fill="#C12127"/>
<path id="Vector_17" d="M284.375 198.375H315.625V229.625H309.375V204.625H300V229.625H284.375V198.375Z" fill="white"/>
</g>
</g>
<g id="GraphQL">
<g id="Group_7">
<path id="Vector_18" fill-rule="evenodd" clip-rule="evenodd" d="M242.256 381.73L252.537 387.666C252.827 387.359 253.165 387.088 253.548 386.866C255.681 385.64 258.4 386.368 259.639 388.5C260.865 390.632 260.137 393.352 258.005 394.59C257.624 394.809 257.224 394.966 256.817 395.063V406.94C257.22 407.037 257.615 407.193 257.992 407.41C260.137 408.648 260.865 411.368 259.626 413.5C258.4 415.632 255.668 416.36 253.536 415.134C253.111 414.89 252.742 414.587 252.434 414.24L242.215 420.139C242.361 420.581 242.44 421.053 242.44 421.544C242.44 423.995 240.448 426 237.984 426C235.52 426 233.528 424.008 233.528 421.544C233.528 421.106 233.591 420.683 233.708 420.283L223.43 414.349C223.144 414.649 222.81 414.915 222.433 415.134C220.287 416.36 217.568 415.632 216.342 413.5C215.116 411.368 215.844 408.648 217.976 407.41C218.353 407.193 218.749 407.037 219.151 406.94V395.063C218.744 394.966 218.344 394.809 217.964 394.59C215.831 393.365 215.104 390.632 216.329 388.5C217.555 386.368 220.287 385.64 222.42 386.866C222.801 387.087 223.138 387.356 223.426 387.661L233.71 381.723C233.592 381.322 233.528 380.896 233.528 380.456C233.528 377.992 235.52 376 237.984 376C240.448 376 242.44 377.992 242.44 380.456C242.44 380.899 242.376 381.326 242.256 381.73ZM241.185 383.559L251.491 389.509C251.172 390.628 251.289 391.868 251.914 392.956C252.541 394.047 253.563 394.771 254.698 395.053V406.944C254.64 406.958 254.582 406.974 254.525 406.99L241.065 383.678C241.106 383.639 241.146 383.599 241.185 383.559ZM234.906 383.68L221.446 406.992C221.388 406.976 221.329 406.96 221.271 406.945V395.053C222.405 394.771 223.427 394.047 224.054 392.956C224.681 391.866 224.797 390.623 224.476 389.502L234.779 383.554C234.82 383.597 234.863 383.639 234.906 383.68ZM239.229 384.736L252.686 408.043C252.385 408.33 252.119 408.665 251.901 409.044C251.685 409.421 251.529 409.816 251.432 410.219H224.537C224.439 409.816 224.284 409.421 224.067 409.044C223.848 408.667 223.583 408.335 223.284 408.049L236.743 384.738C237.137 384.851 237.553 384.912 237.984 384.912C238.416 384.912 238.834 384.851 239.229 384.736ZM241.28 418.542L251.518 412.63C251.488 412.534 251.46 412.436 251.436 412.338H224.531C224.517 412.396 224.501 412.453 224.485 412.511L234.774 418.451C235.584 417.61 236.722 417.088 237.984 417.088C239.291 417.088 240.465 417.648 241.28 418.542Z" fill="#E535AB"/>
</g>
</g>
<g id="Vue">
<g id="Group_8">
<path id="Vector_19" d="M215 83.5156H225L200 126.641L175 83.5156H184.875H194.125L200 93.5156L205.75 83.5156H215Z" fill="#41B883"/>
<path id="Vector_20" d="M175 83.5156L200 126.641L225 83.5156H215L200 109.391L184.875 83.5156H175Z" fill="#41B883"/>
<path id="Vector_21" d="M184.875 83.5156L200 109.516L215 83.5156H205.75L200 93.5156L194.125 83.5156H184.875Z" fill="#35495E"/>
</g>
</g>
<g id="Nextjs">
<path id="Vector_22" d="M363.363 85.0135C363.255 85.0232 362.913 85.0574 362.605 85.0819C355.503 85.7221 348.851 89.5534 344.638 95.442C342.292 98.7162 340.792 102.43 340.225 106.364C340.024 107.737 340 108.143 340 110.005C340 111.867 340.024 112.272 340.225 113.646C341.584 123.033 348.265 130.921 357.326 133.843C358.949 134.366 360.66 134.723 362.605 134.938C363.363 135.021 366.637 135.021 367.395 134.938C370.753 134.566 373.597 133.736 376.403 132.304C376.833 132.084 376.916 132.025 376.857 131.976C376.818 131.947 374.985 129.489 372.786 126.518L368.788 121.118L363.778 113.704C361.022 109.629 358.754 106.296 358.734 106.296C358.715 106.291 358.695 109.585 358.685 113.607C358.671 120.648 358.666 120.932 358.578 121.098C358.451 121.338 358.353 121.435 358.148 121.543C357.991 121.621 357.854 121.636 357.116 121.636H356.271L356.046 121.494C355.899 121.401 355.792 121.279 355.718 121.137L355.616 120.917L355.626 111.119L355.64 101.316L355.792 101.125C355.87 101.023 356.036 100.891 356.153 100.827C356.354 100.73 356.432 100.72 357.278 100.72C358.275 100.72 358.441 100.759 358.7 101.042C358.773 101.121 361.486 105.206 364.731 110.127C367.977 115.048 372.414 121.768 374.594 125.066L378.553 131.062L378.754 130.93C380.528 129.777 382.405 128.135 383.891 126.425C387.053 122.794 389.091 118.366 389.775 113.646C389.976 112.272 390 111.867 390 110.005C390 108.143 389.976 107.737 389.775 106.364C388.416 96.9765 381.735 89.0891 372.674 86.1668C371.075 85.6487 369.374 85.292 367.468 85.077C366.999 85.0281 363.768 84.9744 363.363 85.0135ZM373.597 100.133C373.832 100.251 374.022 100.476 374.091 100.71C374.13 100.837 374.14 103.554 374.13 109.677L374.115 118.464L372.566 116.089L371.012 113.714V107.327C371.012 103.197 371.031 100.876 371.061 100.764C371.139 100.49 371.31 100.275 371.544 100.148C371.745 100.045 371.818 100.036 372.586 100.036C373.309 100.036 373.436 100.045 373.597 100.133Z" fill="black"/>
</g>
<g id="Jest">
<path id="Vector_23" d="M125.783 373.618C125.783 371.048 123.699 368.964 121.128 368.964C120.963 368.964 120.8 368.973 120.639 368.99L127.032 350.137H99.8668L106.25 368.973C106.156 368.968 106.062 368.964 105.967 368.964C103.397 368.964 101.313 371.048 101.313 373.618C101.313 375.696 102.675 377.454 104.554 378.053C103.562 379.772 102.313 381.321 100.895 382.659C98.9665 384.478 96.7598 385.857 94.3731 386.707C91.5315 385.247 90.1896 382.001 91.4005 379.154C91.5371 378.833 91.6768 378.507 91.8101 378.182C93.8688 377.702 95.4028 375.856 95.4028 373.651C95.4028 371.081 93.3192 368.997 90.7487 368.997C88.1784 368.997 86.0947 371.081 86.0947 373.651C86.0947 375.228 86.879 376.62 88.0777 377.462C86.9258 380.084 85.2325 382.829 84.705 386.01C84.0728 389.823 84.703 393.87 88.0004 396.155C95.6799 401.478 104.016 392.856 112.805 390.688C115.99 389.903 119.487 390.03 122.293 388.404C124.401 387.183 125.79 385.161 126.184 382.89C126.574 380.646 126.006 378.412 124.7 376.601C125.376 375.793 125.783 374.753 125.783 373.618Z" fill="#99425B"/>
<path id="Vector_24" d="M125.065 382.695C124.722 384.667 123.505 386.389 121.724 387.421C120.064 388.382 118.074 388.669 115.968 388.973C114.84 389.135 113.673 389.304 112.533 389.585C109.519 390.328 106.6 391.778 103.777 393.18C98.1274 395.986 93.2485 398.41 88.648 395.221C85.2781 392.886 85.4337 388.564 85.8263 386.196C86.1902 384.003 87.1738 381.982 88.1251 380.028C88.2895 379.69 88.4505 379.359 88.6073 379.03C89.0787 379.218 89.5802 379.347 90.103 379.405C89.1347 382.601 90.6574 386.076 93.8537 387.718L94.2911 387.943L94.7544 387.778C97.2812 386.878 99.6095 385.434 101.675 383.485C103.01 382.226 104.157 380.832 105.101 379.344C105.384 379.386 105.673 379.409 105.967 379.409C108.901 379.409 111.33 377.216 111.706 374.383C112.907 374.339 114.182 374.339 115.39 374.383C115.765 377.215 118.195 379.409 121.128 379.409C122.355 379.409 123.493 379.024 124.43 378.371C125.081 379.703 125.324 381.202 125.065 382.695ZM90.7487 370.134C92.6883 370.134 94.2661 371.712 94.2661 373.651C94.2661 374.348 94.0617 374.998 93.7107 375.545C93.1259 376.457 92.1324 377.082 90.9904 377.16C90.9105 377.165 90.83 377.169 90.7487 377.169C90.3166 377.169 89.9025 377.09 89.5197 376.947C88.7452 376.657 88.1 376.101 87.6941 375.392C87.4002 374.878 87.2313 374.284 87.2313 373.651C87.2313 371.712 88.8092 370.134 90.7487 370.134ZM102.45 373.618C102.45 371.856 103.753 370.393 105.445 370.14C105.616 370.114 105.79 370.101 105.967 370.101C107.095 370.101 108.099 370.635 108.743 371.463C108.903 371.668 109.041 371.891 109.153 372.13C109.365 372.582 109.485 373.086 109.485 373.618C109.485 373.899 109.451 374.173 109.388 374.435C109.045 375.87 107.822 376.967 106.322 377.118C106.206 377.129 106.087 377.135 105.967 377.135C105.265 377.135 104.611 376.928 104.061 376.572C103.093 375.944 102.45 374.855 102.45 373.618ZM117.13 369.435C116.377 370.156 115.816 371.078 115.537 372.113C114.235 372.065 112.854 372.065 111.559 372.113C111.261 371.009 110.644 370.035 109.814 369.296L113.454 361.936L117.13 369.435ZM101.452 351.273H125.446L119.779 367.987C119.533 368.046 119.294 368.121 119.061 368.21L113.463 356.79L107.849 368.142C107.606 368.058 107.356 367.991 107.1 367.94L101.452 351.273ZM124.646 373.618C124.646 373.971 124.593 374.311 124.496 374.633C124.265 375.397 123.781 376.053 123.14 376.501C122.57 376.9 121.876 377.135 121.128 377.135C119.504 377.135 118.134 376.029 117.732 374.53C117.653 374.239 117.611 373.933 117.611 373.618C117.611 373.137 117.708 372.679 117.884 372.261C117.974 372.046 118.087 371.842 118.216 371.651C118.849 370.717 119.917 370.101 121.128 370.101C121.24 370.101 121.349 370.106 121.458 370.117C123.243 370.283 124.646 371.789 124.646 373.618ZM126.919 373.618C126.919 370.791 124.882 368.432 122.199 367.928L128.617 349H98.2814L104.709 367.967C102.119 368.543 100.177 370.857 100.177 373.618C100.177 375.691 101.272 377.512 102.914 378.535C102.124 379.712 101.188 380.819 100.115 381.832C98.4125 383.437 96.5163 384.655 94.4721 385.456C92.413 384.163 91.5426 381.724 92.4465 379.599L92.5174 379.432C92.5617 379.328 92.606 379.224 92.6502 379.12C94.9118 378.331 96.5394 376.178 96.5394 373.651C96.5394 370.458 93.9417 367.861 90.7487 367.861C87.5557 367.861 84.958 370.458 84.958 373.651C84.958 375.263 85.6205 376.723 86.6867 377.773C86.4934 378.185 86.29 378.604 86.0812 379.033C85.1064 381.035 84.0015 383.304 83.5837 385.824C82.7538 390.829 84.0925 394.83 87.353 397.09C89.3315 398.461 91.3407 399 93.3627 399C97.17 399 101.021 397.087 104.788 395.216C107.501 393.869 110.306 392.475 113.077 391.792C114.108 391.538 115.169 391.385 116.292 391.223C118.52 390.901 120.823 390.569 122.863 389.388C125.228 388.018 126.847 385.72 127.304 383.084C127.697 380.821 127.224 378.554 126.071 376.632C126.609 375.753 126.919 374.721 126.919 373.618Z" fill="white"/>
</g>
<path id="Vercel" d="M124.867 273L153.734 323H96L124.867 273Z" fill="black"/>
<g id="MongoDB">
<path id="Vector_25" d="M14.1485 157.158L15.8534 160.054C16.2367 160.588 16.652 161.061 17.1411 161.502C18.5751 162.782 19.9117 164.149 21.1418 165.593C24.0306 169.023 25.9791 172.832 27.3706 176.952C28.2051 179.469 28.6582 182.051 28.6922 184.662C28.8319 192.466 25.8733 199.168 19.9081 204.738C18.9378 205.621 17.8895 206.431 16.7737 207.161C16.1828 207.161 15.9033 206.751 15.6598 206.374C15.2162 205.674 14.921 204.905 14.7893 204.108C14.5797 203.164 14.442 202.219 14.5098 201.244V200.804C14.4619 200.71 13.9409 157.38 14.1485 157.158V157.158Z" fill="#599636"/>
<path id="Vector_26" d="M14.1485 157.062C14.0786 156.936 14.0088 157.031 13.9389 157.093C13.9728 157.725 13.7293 158.288 13.348 158.826C12.9287 159.36 12.3737 159.77 11.8167 160.211C8.72235 162.634 6.28676 165.56 4.3363 168.833C1.741 173.239 0.403423 177.96 0.0241098 182.93C-0.149576 184.723 0.650974 191.049 1.27584 192.874C2.98075 197.72 6.0432 201.781 10.01 205.305C10.9843 206.153 12.0264 206.941 13.1044 207.697C13.4178 207.697 13.4518 207.444 13.5237 207.256C13.6611 206.855 13.7658 206.444 13.8371 206.029L14.5358 201.309L14.1485 157.062Z" fill="#6CAC48"/>
<path id="Vector_27" d="M15.8534 209.078C15.9233 208.356 16.3066 207.757 16.7238 207.159C16.3046 207.002 15.9932 206.69 15.7496 206.341C15.5396 206.011 15.3657 205.663 15.2305 205.303C14.7434 203.981 14.6396 202.595 14.4999 201.244V200.427C14.3262 200.553 14.2902 201.622 14.2902 201.781C14.1887 203.208 13.9792 204.627 13.6634 206.029C13.5596 206.596 13.4897 207.161 13.1044 207.664C13.1044 207.728 13.1044 207.791 13.1383 207.885C13.7652 209.553 13.9369 211.252 14.0427 212.983V213.615C14.0427 214.37 14.0088 214.211 14.7015 214.464C14.981 214.558 15.2924 214.59 15.5719 214.778C15.7815 214.778 15.8155 214.621 15.8155 214.494L15.7117 213.456V210.56C15.6777 210.055 15.7815 209.553 15.8514 209.08L15.8534 209.078Z" fill="#C2BFBF"/>
</g>
<g id="Nest.js">
<path id="Vector_28" fill-rule="evenodd" clip-rule="evenodd" d="M168.441 0C168.079 0 167.743 0.0807369 167.433 0.18838C168.092 0.645872 168.453 1.25138 168.634 1.93762C168.647 2.03181 168.673 2.09909 168.686 2.19328C168.699 2.27401 168.712 2.35475 168.712 2.43548C168.763 3.61958 168.415 3.76759 168.169 4.46729C167.795 5.36883 167.898 6.33764 168.35 7.11807C168.389 7.21225 168.441 7.3199 168.505 7.41409C168.014 4.0098 170.739 3.49848 171.243 2.43548C171.281 1.50704 170.545 0.888076 169.964 0.457493C169.409 0.107646 168.905 0 168.441 0ZM172.547 0.766975C172.495 1.07646 172.534 0.995721 172.521 1.15719C172.508 1.26483 172.508 1.39939 172.495 1.50704C172.469 1.61468 172.443 1.72233 172.405 1.82998C172.379 1.93762 172.34 2.04527 172.301 2.15291C172.25 2.26056 172.211 2.35475 172.159 2.46239C172.121 2.51624 172.095 2.57004 172.056 2.62386C172.03 2.66423 172.004 2.7046 171.979 2.74496C171.914 2.83916 171.85 2.93334 171.785 3.01408C171.707 3.09481 171.643 3.189 171.553 3.25628V3.26975C171.475 3.33703 171.398 3.41777 171.307 3.48504C171.036 3.70033 170.726 3.8618 170.442 4.06364C170.352 4.13092 170.261 4.18474 170.184 4.26548C170.093 4.33275 170.016 4.40003 169.938 4.48077C169.848 4.5615 169.784 4.64224 169.706 4.73643C169.641 4.81716 169.564 4.91135 169.512 5.00554C169.448 5.09973 169.383 5.19392 169.332 5.28811C169.28 5.39575 169.241 5.48994 169.19 5.59759C169.151 5.70523 169.112 5.79942 169.086 5.90707C169.048 6.02817 169.022 6.13582 168.996 6.24347C168.983 6.29731 168.983 6.36456 168.97 6.41839C168.957 6.47223 168.957 6.52603 168.944 6.57986C168.944 6.6875 168.931 6.8086 168.931 6.91625C168.931 6.99698 168.931 7.07772 168.944 7.15845C168.944 7.26609 168.957 7.37374 168.983 7.49484C168.996 7.60248 169.022 7.71013 169.048 7.81778C169.086 7.92543 169.112 8.03307 169.151 8.14071C169.177 8.208 169.215 8.27527 169.241 8.32909L166.271 7.13154C165.768 6.98352 165.277 6.84897 164.773 6.72787C164.502 6.66059 164.231 6.59331 163.96 6.52603C163.185 6.36456 162.398 6.24347 161.61 6.16273C161.584 6.16273 161.571 6.14926 161.545 6.14926C160.771 6.06852 160.009 6.02816 159.234 6.02816C158.666 6.02816 158.098 6.05505 157.542 6.09543C156.755 6.14928 155.967 6.2569 155.179 6.39146C154.986 6.41835 154.792 6.45874 154.598 6.49911C154.198 6.57984 153.811 6.67403 153.436 6.76822C153.243 6.82206 153.049 6.87587 152.855 6.92969C152.661 7.01042 152.481 7.10461 152.3 7.18535C152.158 7.25262 152.016 7.3199 151.874 7.38718C151.848 7.40066 151.822 7.40066 151.809 7.41407C151.68 7.48135 151.564 7.53517 151.448 7.60245C151.409 7.61593 151.383 7.62934 151.357 7.64282C151.215 7.7101 151.073 7.79083 150.957 7.85811C150.867 7.89848 150.776 7.9523 150.699 7.99267C150.66 8.01956 150.608 8.04651 150.583 8.05995C150.466 8.12722 150.35 8.1945 150.247 8.26178C150.131 8.32906 150.027 8.39634 149.937 8.46361C149.847 8.5309 149.756 8.58472 149.679 8.65199C149.666 8.66547 149.653 8.66547 149.64 8.67888C149.562 8.73273 149.472 8.79998 149.395 8.86727C149.395 8.86727 149.382 8.88074 149.369 8.89416C149.304 8.948 149.24 9.0018 149.175 9.05562C149.149 9.0691 149.123 9.09599 149.098 9.10947C149.033 9.16331 148.969 9.23057 148.904 9.28439C148.891 9.31129 148.865 9.32476 148.852 9.33824C148.775 9.41897 148.697 9.48625 148.62 9.56698C148.607 9.56698 148.607 9.58046 148.594 9.59387C148.517 9.66115 148.439 9.74189 148.362 9.82262C148.349 9.8361 148.349 9.84951 148.336 9.84951C148.271 9.91679 148.207 9.98407 148.142 10.0648C148.116 10.0917 148.078 10.1186 148.052 10.1455C147.987 10.2263 147.91 10.307 147.832 10.3877C147.819 10.4146 147.793 10.4281 147.781 10.455C147.677 10.5627 147.587 10.6703 147.484 10.778C147.471 10.7914 147.458 10.8048 147.445 10.8183C147.238 11.0471 147.019 11.2758 146.786 11.4777C146.554 11.6929 146.309 11.8948 146.063 12.0697C145.805 12.2581 145.56 12.4195 145.288 12.581C145.03 12.729 144.759 12.8636 144.475 12.9847C144.204 13.1058 143.92 13.2134 143.636 13.3076C143.093 13.4287 142.538 13.6575 142.06 13.6978C141.957 13.6978 141.841 13.7247 141.737 13.7382C141.621 13.7651 141.518 13.792 141.415 13.8189C141.311 13.8593 141.208 13.8997 141.105 13.94C141.001 13.9804 140.898 14.0342 140.795 14.0881C140.704 14.1553 140.601 14.2092 140.511 14.2764C140.42 14.3437 140.33 14.4244 140.253 14.5052C140.162 14.5725 140.072 14.6667 139.994 14.7474C139.917 14.8416 139.839 14.9223 139.775 15.0165C139.71 15.1241 139.633 15.2183 139.581 15.326C139.517 15.4202 139.452 15.5278 139.4 15.6355C139.349 15.7566 139.297 15.8642 139.258 15.9853C139.22 16.093 139.181 16.2141 139.142 16.3352C139.116 16.4428 139.09 16.5504 139.077 16.6581C139.077 16.6716 139.065 16.685 139.065 16.6985C139.039 16.8196 139.039 16.981 139.026 17.0618C139.013 17.156 139 17.2367 139 17.3309C139 17.3847 139 17.452 139.013 17.5058C139.026 17.6 139.039 17.6807 139.065 17.7615C139.09 17.8422 139.116 17.9229 139.155 18.0037V18.0171C139.194 18.0979 139.245 18.1786 139.297 18.2593C139.349 18.3401 139.4 18.4208 139.465 18.5016C139.529 18.5688 139.607 18.6496 139.684 18.7168C139.762 18.7976 139.839 18.8648 139.93 18.9321C140.24 19.2147 140.317 19.3089 140.717 19.5242C140.782 19.5645 140.847 19.5915 140.924 19.6318C140.937 19.6318 140.95 19.6453 140.963 19.6453C140.963 19.6722 140.963 19.6857 140.976 19.7126C140.989 19.8202 141.014 19.9279 141.04 20.0355C141.066 20.1566 141.105 20.2643 141.144 20.3585C141.182 20.4392 141.208 20.5199 141.247 20.6007C141.26 20.6276 141.273 20.6545 141.286 20.6679C141.337 20.7756 141.389 20.8698 141.441 20.964C141.505 21.0582 141.57 21.1523 141.634 21.2465C141.699 21.3273 141.776 21.4215 141.854 21.5022C141.931 21.5829 142.009 21.6502 142.099 21.7309C142.099 21.7309 142.112 21.7444 142.125 21.7444C142.202 21.8117 142.28 21.879 142.357 21.9328C142.448 22.0001 142.538 22.0539 142.641 22.1077C142.732 22.1616 142.835 22.2154 142.938 22.2557C143.016 22.2961 143.106 22.323 143.197 22.3499C143.21 22.3634 143.222 22.3634 143.248 22.3768C143.3 22.3903 143.365 22.4037 143.416 22.4172C143.377 23.1438 143.364 23.83 143.468 24.0722C143.584 24.3414 144.152 23.5206 144.72 22.5787C144.643 23.5071 144.591 24.597 144.72 24.92C144.862 25.2563 145.637 24.2068 146.309 23.0496C155.464 20.8429 163.818 27.4362 164.696 36.7475C164.528 35.2943 162.811 34.487 162.023 34.6888C161.636 35.6845 160.977 36.9628 159.918 37.7567C160.009 36.8686 159.97 35.9536 159.789 35.0655C159.505 36.3035 158.95 37.4607 158.188 38.4564C156.961 38.5506 155.735 37.9316 155.089 37.0032C155.037 36.9628 155.025 36.8821 154.986 36.8282C154.947 36.734 154.908 36.6399 154.883 36.5457C154.844 36.4515 154.818 36.3573 154.805 36.2631C154.792 36.1689 154.792 36.0747 154.792 35.9671C154.792 35.8998 154.792 35.8325 154.792 35.7652C154.805 35.671 154.831 35.5769 154.857 35.4827C154.883 35.3885 154.908 35.2943 154.947 35.2001C154.999 35.1059 155.037 35.0117 155.102 34.9175C155.322 34.2717 155.322 33.7469 154.921 33.4374C154.844 33.3836 154.766 33.3432 154.676 33.3028C154.624 33.2894 154.56 33.2625 154.508 33.249C154.469 33.2355 154.444 33.2221 154.405 33.2086C154.314 33.1817 154.224 33.1548 154.134 33.1414C154.043 33.1145 153.953 33.101 153.862 33.101C153.772 33.0875 153.669 33.0741 153.578 33.0741C153.514 33.0741 153.449 33.0876 153.385 33.0876C153.281 33.0876 153.191 33.1011 153.101 33.1279C153.01 33.1414 152.92 33.1548 152.829 33.1818C152.739 33.2087 152.649 33.2356 152.558 33.276C152.468 33.3163 152.39 33.3567 152.3 33.3971C152.223 33.4374 152.145 33.4913 152.055 33.5316C149.046 35.5769 150.841 40.3671 152.894 41.7531C152.119 41.9011 151.332 42.076 151.112 42.2509C151.099 42.2644 151.086 42.2778 151.086 42.2778C151.641 42.6277 152.223 42.9237 152.829 43.1793C153.656 43.4619 154.534 43.7176 154.921 43.8252V43.8387C155.993 44.0674 157.078 44.1482 158.175 44.0809C163.896 43.6638 168.583 39.1292 169.435 33.1549C169.461 33.276 169.487 33.3836 169.513 33.5047C169.551 33.7469 169.603 34.0026 169.629 34.2582V34.2717C169.655 34.3928 169.667 34.5139 169.68 34.6216V34.6754C169.693 34.7965 169.706 34.9176 169.706 35.0253C169.719 35.1733 169.732 35.3213 169.732 35.4693V35.6846C169.732 35.7519 169.745 35.8326 169.745 35.8999C169.745 35.9806 169.732 36.0614 169.732 36.1421V36.3305C169.732 36.4247 169.719 36.5054 169.719 36.5996C169.719 36.6534 169.719 36.7072 169.706 36.7745C169.706 36.8687 169.693 36.9629 169.693 37.0705C169.68 37.1109 169.68 37.1513 169.68 37.1916C169.667 37.2993 169.654 37.3935 169.641 37.5011C169.641 37.5415 169.641 37.5819 169.629 37.6222C169.616 37.7568 169.59 37.8779 169.577 38.0124V38.0259V38.0394C169.551 38.1605 169.525 38.2951 169.499 38.4162V38.4565C169.474 38.5776 169.448 38.6987 169.422 38.8198C169.422 38.8333 169.409 38.8602 169.409 38.8737C169.383 38.9948 169.357 39.1159 169.319 39.237V39.2773C169.28 39.4119 169.241 39.533 169.215 39.6541C169.202 39.6676 169.202 39.681 169.202 39.681C169.164 39.8155 169.125 39.9501 169.086 40.0847C169.035 40.2192 168.996 40.3403 168.944 40.4749C168.892 40.6094 168.854 40.744 168.802 40.8651C168.75 40.9997 168.699 41.1208 168.647 41.2553H168.634C168.583 41.3764 168.531 41.511 168.466 41.6321C168.453 41.6724 168.441 41.6993 168.428 41.7263C168.415 41.7397 168.415 41.7531 168.402 41.7666C167.562 43.5293 166.323 45.0767 164.773 46.2877C164.67 46.355 164.567 46.4358 164.463 46.5165C164.438 46.5434 164.399 46.5569 164.373 46.5838C164.283 46.651 164.192 46.7183 164.089 46.7856L164.128 46.8663H164.141C164.321 46.8394 164.502 46.8125 164.683 46.7856H164.696C165.032 46.7318 165.367 46.6645 165.703 46.5972C165.794 46.5837 165.897 46.5569 165.987 46.5299C166.052 46.5164 166.103 46.503 166.168 46.4896C166.258 46.4761 166.349 46.4492 166.439 46.4357C166.517 46.4088 166.594 46.3954 166.672 46.3684C167.963 46.0455 169.215 45.6015 170.416 45.0767C168.363 47.9966 165.613 50.3513 162.397 51.8987C163.882 51.7911 165.367 51.5354 166.801 51.1049C172.004 49.5036 176.382 45.8571 179.003 40.9458C178.474 44.0541 177.286 47.0143 175.53 49.5978C176.782 48.7366 177.931 47.7409 178.977 46.6106C181.87 43.462 183.768 39.4657 184.413 35.1733C184.852 37.2993 184.982 39.4926 184.788 41.659C194.111 28.1091 185.563 14.0613 181.986 10.361C181.973 10.3341 181.96 10.3206 181.96 10.2937C181.947 10.3072 181.947 10.3072 181.947 10.3206C181.947 10.3071 181.947 10.3071 181.934 10.2937C181.934 10.4552 181.921 10.6167 181.908 10.7781C181.87 11.0876 181.831 11.3836 181.779 11.6797C181.715 11.9757 181.637 12.2717 181.56 12.5677C181.469 12.8503 181.366 13.1463 181.25 13.4289C181.134 13.698 181.005 13.9806 180.862 14.2497C180.72 14.5054 180.565 14.7745 180.398 15.0167C180.23 15.2723 180.049 15.5145 179.868 15.7433C179.675 15.9855 179.468 16.2008 179.261 16.4161C179.132 16.5372 179.016 16.6448 178.887 16.7525C178.784 16.8466 178.693 16.9274 178.59 17.0216C178.357 17.2099 178.125 17.3849 177.867 17.5463C177.621 17.7078 177.363 17.8693 177.105 18.0038C176.834 18.1384 176.563 18.2595 176.291 18.3806C176.02 18.4882 175.736 18.5824 175.452 18.6632C175.168 18.7439 174.871 18.8112 174.587 18.865C174.29 18.9188 173.993 18.9457 173.709 18.9726C173.502 18.9861 173.296 18.9995 173.089 18.9995C172.792 18.9995 172.495 18.9726 172.211 18.9457C171.914 18.9188 171.617 18.8784 171.333 18.8111C171.036 18.7573 170.752 18.6766 170.468 18.5824H170.455C170.739 18.5555 171.023 18.5285 171.307 18.4747C171.604 18.4209 171.888 18.3536 172.172 18.2729C172.456 18.1922 172.74 18.098 173.012 17.9903C173.296 17.8827 173.567 17.7481 173.825 17.6136C174.096 17.479 174.342 17.331 174.6 17.1695C174.845 16.9946 175.091 16.8197 175.323 16.6313C175.555 16.4429 175.775 16.2411 175.982 16.0258C176.201 15.824 176.395 15.5952 176.588 15.3665C176.782 15.1243 176.963 14.8821 177.131 14.6399C177.157 14.5995 177.182 14.5457 177.208 14.5053C177.337 14.29 177.466 14.0747 177.583 13.8594C177.725 13.5903 177.854 13.3212 177.97 13.0386C178.086 12.7561 178.19 12.4735 178.28 12.1775C178.37 11.8949 178.435 11.5989 178.499 11.3029C178.551 10.9934 178.603 10.6973 178.629 10.4013C178.654 10.0918 178.68 9.78236 178.68 9.48634C178.68 9.27105 178.667 9.05576 178.654 8.84047C178.629 8.53099 178.59 8.23496 178.551 7.93894C178.499 7.62945 178.435 7.33343 178.357 7.0374C178.267 6.75484 178.177 6.45881 178.073 6.17624C177.97 5.89367 177.841 5.6111 177.712 5.34198C177.57 5.07287 177.428 4.80376 177.273 4.5481C177.105 4.29245 176.937 4.05024 176.756 3.80804C176.563 3.57929 176.369 3.35054 176.162 3.1218C176.059 3.01415 175.943 2.89305 175.827 2.78541C175.246 2.31446 174.639 1.87041 174.032 1.46675C173.941 1.4129 173.864 1.37256 173.773 1.33219C173.347 1.04962 172.947 0.901528 172.547 0.766975Z" fill="#E0234E"/>
</g>
<g id="Redis">
<path id="Vector_29" d="M112.041 68.8826C109.373 70.2734 95.55 75.9568 92.6072 77.491C89.6645 79.0254 88.0297 79.0105 85.7049 77.8992C83.3803 76.7879 68.6705 70.8461 66.0207 69.5795C64.6965 68.9467 64 68.4123 64 67.9076V62.8537C64 62.8537 83.1504 58.6848 86.242 57.5756C89.3334 56.4664 90.4061 56.4264 93.0369 57.39C95.6682 58.3541 111.4 61.1924 114 62.1447L113.999 67.1271C113.999 67.6268 113.399 68.1748 112.041 68.8826" fill="#912626"/>
<path id="Vector_30" d="M112.04 63.8586C109.372 65.2488 95.5496 70.9324 92.6068 72.4664C89.6643 74.0009 88.0295 73.9859 85.7049 72.8746C83.3801 71.764 68.6709 65.8213 66.0213 64.5554C63.3717 63.2888 63.3162 62.4172 65.9189 61.398C68.5217 60.3785 83.1502 54.6392 86.2422 53.5301C89.3336 52.4213 90.4061 52.3808 93.0369 53.3449C95.668 54.3086 109.408 59.7775 112.008 60.7297C114.608 61.683 114.708 62.4679 112.04 63.8586" fill="#C6302B"/>
<path id="Vector_31" d="M112.041 60.7051C109.373 62.0961 95.55 67.7793 92.6072 69.314C89.6645 70.8478 88.0297 70.833 85.7049 69.7217C83.3801 68.6109 68.6705 62.6685 66.0207 61.4019C64.6965 60.7691 64 60.2355 64 59.7307V54.6762C64 54.6762 83.1504 50.5074 86.242 49.3982C89.3334 48.289 90.4061 48.2488 93.0369 49.2127C95.6684 50.1766 111.4 53.0142 114 53.9668L113.999 58.9498C113.999 59.4492 113.399 59.9973 112.041 60.7051Z" fill="#912626"/>
<path id="Vector_32" d="M112.04 55.681C109.372 57.0717 95.5496 62.7549 92.6068 64.2894C89.6643 65.8234 88.0295 65.8084 85.7049 64.697C83.3801 63.5865 68.6709 57.6439 66.0213 56.3779C63.3717 55.1117 63.3162 54.2398 65.9189 53.2203C68.5217 52.2013 83.1504 46.4617 86.2422 45.3527C89.3336 44.2437 90.4061 44.2035 93.0369 45.1674C95.668 46.131 109.408 51.5996 112.008 52.5521C114.608 53.5052 114.708 54.2904 112.04 55.681" fill="#C6302B"/>
<path id="Vector_33" d="M112.041 52.2244C109.373 53.6151 95.55 59.2987 92.6072 60.8334C89.6645 62.3674 88.0297 62.3524 85.7049 61.241C83.3801 60.1303 68.6705 54.1877 66.0207 52.9217C64.6965 52.2883 64 51.7545 64 51.2502V46.1955C64 46.1955 83.1504 42.027 86.242 40.918C89.3334 39.8086 90.4061 39.7687 93.0369 40.7324C95.6684 41.6963 111.4 44.534 114 45.4865L113.999 50.4693C113.999 50.9684 113.399 51.5164 112.041 52.2244Z" fill="#912626"/>
<path id="Vector_34" d="M112.04 47.2004C109.372 48.591 95.5497 54.2746 92.607 55.8086C89.6644 57.3426 88.0296 57.3275 85.705 56.2168C83.3804 55.1055 68.671 49.1633 66.0216 47.8971C63.3718 46.6311 63.3165 45.759 65.9191 44.7396C68.5218 43.7205 83.1505 37.9816 86.2423 36.8723C89.3337 35.7631 90.4062 35.7232 93.037 36.6871C95.6681 37.651 109.408 43.1195 112.008 44.0721C114.609 45.0244 114.708 45.8098 112.04 47.2004" fill="#C6302B"/>
<path id="Vector_35" d="M95.11 42.2838L90.8112 42.7301L89.8489 45.0457L88.2946 42.4617L83.3307 42.0156L87.0346 40.6799L85.9233 38.6295L89.391 39.9857L92.6602 38.9154L91.7766 41.0355L95.11 42.2838V42.2838ZM89.5922 53.5177L81.5693 50.1902L93.0655 48.4256L89.5922 53.5177V53.5177ZM78.4691 43.5709C81.8627 43.5709 84.6137 44.6373 84.6137 45.9525C84.6137 47.2681 81.8627 48.3344 78.4691 48.3344C75.0756 48.3344 72.3246 47.2679 72.3246 45.9525C72.3246 44.6373 75.0756 43.5709 78.4691 43.5709Z" fill="white"/>
<path id="Vector_36" d="M100.19 42.9168L106.994 45.6055L100.196 48.2916L100.19 42.9166" fill="#621B1C"/>
<path id="Vector_37" d="M92.6631 45.8944L100.19 42.9168L100.196 48.2916L99.4582 48.5803L92.6631 45.8944Z" fill="#9A2928"/>
</g>
<g id="Postgres">
<path id="Vector_38" d="M394.868 268.951C394.567 268.068 393.78 267.453 392.762 267.306C392.282 267.236 391.732 267.266 391.081 267.396C389.947 267.623 389.106 267.709 388.492 267.726C390.81 263.931 392.694 259.603 393.779 255.529C395.533 248.942 394.596 245.941 393.5 244.583C390.601 240.991 386.372 239.06 381.269 239.001C378.548 238.969 376.158 239.49 374.911 239.865C373.751 239.667 372.503 239.556 371.194 239.535C368.739 239.497 366.57 240.016 364.717 241.083C363.691 240.746 362.045 240.272 360.143 239.969C355.671 239.257 352.067 239.812 349.431 241.619C346.238 243.806 344.758 247.606 345.032 252.914C345.119 254.599 346.091 259.726 347.621 264.589C348.501 267.384 349.438 269.705 350.408 271.488C351.784 274.016 353.256 275.505 354.909 276.04C355.835 276.339 357.518 276.549 359.288 275.119C359.512 275.383 359.812 275.644 360.209 275.888C360.714 276.196 361.33 276.448 361.947 276.598C364.167 277.136 366.247 277.002 368.021 276.247C368.032 276.553 368.041 276.846 368.048 277.098C368.059 277.508 368.071 277.909 368.087 278.285C368.192 280.825 368.37 282.799 368.898 284.181C368.927 284.257 368.966 284.373 369.007 284.496C369.27 285.278 369.71 286.587 370.831 287.612C371.991 288.674 373.394 289 374.679 289C375.323 289 375.938 288.918 376.478 288.806C378.4 288.406 380.584 287.797 382.163 285.616C383.657 283.554 384.383 280.447 384.514 275.553C384.531 275.415 384.547 275.282 384.562 275.157L384.593 274.898L384.945 274.928L385.036 274.934C386.994 275.02 389.388 274.618 390.859 273.955C392.021 273.432 395.744 271.525 394.868 268.951" fill="black"/>
<path id="Vector_39" d="M391.519 269.452C385.697 270.617 385.297 268.705 385.297 268.705C391.444 259.857 394.014 248.626 391.797 245.877C385.746 238.379 375.273 241.925 375.098 242.017L375.042 242.027C373.891 241.795 372.604 241.657 371.157 241.634C368.523 241.592 366.524 242.304 365.007 243.419C365.007 243.419 346.324 235.954 347.193 252.809C347.378 256.394 352.492 279.94 358.591 272.828C360.82 270.228 362.975 268.029 362.975 268.029C364.044 268.718 365.325 269.07 366.668 268.944L366.772 268.858C366.74 269.181 366.755 269.496 366.814 269.87C365.243 271.573 365.704 271.872 362.563 272.499C359.385 273.135 361.252 274.266 362.471 274.562C363.949 274.92 367.368 275.428 369.678 272.291L369.586 272.649C370.202 273.127 370.634 275.76 370.562 278.147C370.489 280.533 370.441 282.172 370.926 283.452C371.411 284.732 371.895 287.612 376.024 286.753C379.474 286.036 381.262 284.178 381.511 281.077C381.688 278.873 382.087 279.199 382.112 277.229L382.433 276.296C382.802 273.308 382.492 272.344 384.617 272.793L385.134 272.837C386.698 272.906 388.746 272.592 389.948 272.051C392.536 270.886 394.071 268.941 391.519 269.452H391.519" fill="#336791"/>
<path id="Vector_40" d="M366.101 254.412C365.576 254.341 365.101 254.407 364.861 254.584C364.726 254.683 364.684 254.798 364.673 254.877C364.642 255.087 364.794 255.319 364.887 255.439C365.151 255.777 365.536 256.01 365.917 256.062C365.972 256.069 366.027 256.073 366.081 256.073C366.717 256.073 367.294 255.593 367.345 255.239C367.409 254.795 366.745 254.499 366.101 254.412V254.412ZM383.483 254.426C383.433 254.079 382.795 253.98 382.19 254.061C381.586 254.143 380.999 254.408 381.048 254.756C381.087 255.027 381.592 255.49 382.189 255.49C382.24 255.49 382.291 255.486 382.342 255.479C382.74 255.426 383.033 255.18 383.172 255.039C383.383 254.823 383.506 254.583 383.483 254.426" fill="white"/>
<path id="Vector_41" d="M393.457 269.319C393.235 268.668 392.52 268.459 391.333 268.696C387.808 269.402 386.546 268.913 386.131 268.617C388.871 264.569 391.125 259.675 392.341 255.108C392.917 252.945 393.235 250.937 393.261 249.299C393.29 247.502 392.975 246.182 392.324 245.375C389.7 242.123 385.849 240.379 381.187 240.331C377.983 240.296 375.275 241.091 374.75 241.315C373.645 241.049 372.44 240.885 371.128 240.864C368.722 240.826 366.642 241.385 364.921 242.524C364.173 242.254 362.24 241.61 359.876 241.241C355.79 240.603 352.543 241.086 350.225 242.678C347.46 244.579 346.184 247.975 346.431 252.773C346.514 254.388 347.463 259.354 348.959 264.11C350.929 270.37 353.071 273.914 355.324 274.643C355.587 274.728 355.891 274.787 356.227 274.787C357.049 274.787 358.056 274.428 359.105 273.206C360.384 271.718 361.706 270.266 363.072 268.852C363.957 269.313 364.93 269.571 365.926 269.596C365.927 269.622 365.93 269.647 365.932 269.672C365.761 269.87 365.593 270.071 365.429 270.275C364.74 271.124 364.596 271.301 362.377 271.744C361.745 271.87 360.068 272.206 360.044 273.346C360.017 274.592 362.026 275.115 362.255 275.17C363.052 275.364 363.821 275.459 364.554 275.459C366.336 275.459 367.904 274.891 369.158 273.792C369.119 278.233 369.31 282.609 369.86 283.942C370.31 285.034 371.41 287.701 374.884 287.701C375.394 287.701 375.955 287.643 376.573 287.515C380.199 286.761 381.773 285.207 382.382 281.78C382.708 279.948 383.268 275.574 383.531 273.228C384.086 273.396 384.801 273.473 385.574 273.473C387.185 273.473 389.045 273.141 390.211 272.616C391.521 272.026 393.886 270.578 393.457 269.319V269.319ZM384.822 253.467C384.81 254.159 384.712 254.788 384.607 255.444C384.495 256.15 384.379 256.88 384.35 257.766C384.321 258.628 384.432 259.524 384.54 260.391C384.757 262.142 384.979 263.944 384.118 265.723C383.974 265.477 383.847 265.223 383.736 264.962C383.629 264.71 383.396 264.305 383.074 263.746C381.821 261.566 378.887 256.463 380.389 254.381C380.837 253.761 381.972 253.123 384.822 253.467V253.467ZM381.367 241.733C385.544 241.823 388.848 243.338 391.187 246.238C392.982 248.462 391.006 258.581 385.287 267.311C385.229 267.24 385.171 267.169 385.113 267.098L385.041 267.011C386.519 264.643 386.23 262.301 385.972 260.224C385.867 259.372 385.767 258.567 385.792 257.811C385.819 257.009 385.928 256.322 386.034 255.657C386.163 254.838 386.295 253.991 386.259 252.992C386.286 252.887 386.297 252.763 386.283 252.616C386.19 251.658 385.062 248.791 382.764 246.196C381.506 244.776 379.673 243.188 377.169 242.116C378.246 241.9 379.719 241.698 381.367 241.733V241.733ZM357.995 272.311C356.84 273.658 356.043 273.4 355.78 273.315C354.071 272.762 352.088 269.258 350.339 263.702C348.826 258.894 347.942 254.059 347.872 252.703C347.651 248.416 348.723 245.428 351.057 243.822C354.856 241.209 361.102 242.773 363.612 243.566C363.576 243.601 363.538 243.633 363.502 243.668C359.384 247.702 359.482 254.595 359.492 255.016C359.491 255.179 359.505 255.409 359.525 255.726C359.596 256.885 359.727 259.043 359.375 261.486C359.048 263.757 359.769 265.979 361.355 267.583C361.517 267.748 361.688 267.904 361.867 268.052C361.161 268.785 359.628 270.406 357.995 272.311V272.311ZM362.396 266.615C361.119 265.322 360.538 263.523 360.804 261.68C361.176 259.099 361.039 256.851 360.965 255.643C360.955 255.474 360.945 255.326 360.94 255.209C361.542 254.691 364.33 253.242 366.318 253.684C367.226 253.886 367.778 254.485 368.008 255.516C369.198 260.853 368.166 263.077 367.336 264.865C367.165 265.233 367.004 265.581 366.866 265.941L366.759 266.219C366.489 266.923 366.237 267.577 366.081 268.199C364.722 268.195 363.401 267.632 362.396 266.615V266.615ZM362.605 273.812C362.208 273.716 361.851 273.549 361.642 273.411C361.817 273.331 362.128 273.223 362.668 273.115C365.279 272.593 365.682 272.225 366.563 271.141C366.765 270.892 366.994 270.61 367.31 270.267L367.311 270.267C367.783 269.754 367.999 269.841 368.39 269.998C368.708 270.126 369.017 270.512 369.142 270.936C369.202 271.137 369.268 271.517 369.05 271.813C367.211 274.312 364.53 274.28 362.605 273.812V273.812ZM376.27 286.147C373.076 286.811 371.945 285.23 371.2 283.422C370.718 282.256 370.482 276.994 370.65 271.184C370.652 271.107 370.641 271.032 370.619 270.962C370.599 270.823 370.569 270.686 370.529 270.551C370.28 269.706 369.672 268.999 368.943 268.705C368.653 268.589 368.121 268.375 367.482 268.534C367.618 267.989 367.855 267.374 368.111 266.708L368.219 266.428C368.34 266.112 368.491 265.785 368.652 265.439C369.52 263.569 370.708 261.007 369.418 255.22C368.935 253.053 367.322 251.994 364.876 252.24C363.409 252.387 362.067 252.961 361.398 253.29C361.254 253.361 361.123 253.429 361 253.496C361.187 251.312 361.892 247.231 364.532 244.648C366.194 243.023 368.407 242.22 371.104 242.263C376.417 242.348 379.825 244.993 381.748 247.197C383.405 249.096 384.302 251.009 384.66 252.041C381.967 251.775 380.136 252.291 379.207 253.578C377.187 256.379 380.312 261.815 381.814 264.427C382.089 264.906 382.327 265.32 382.402 265.496C382.891 266.645 383.524 267.413 383.986 267.973C384.128 268.145 384.266 268.311 384.37 268.457C383.555 268.685 382.089 269.212 382.223 271.846C382.115 273.167 381.35 279.356 380.961 281.542C380.447 284.43 379.351 285.506 376.27 286.147V286.147ZM389.604 271.347C388.77 271.722 387.374 272.004 386.048 272.064C384.584 272.131 383.838 271.905 383.663 271.766C383.581 270.125 384.21 269.953 384.877 269.772C384.982 269.743 385.084 269.715 385.183 269.682C385.244 269.73 385.311 269.779 385.385 269.826C386.562 270.579 388.661 270.66 391.625 270.067L391.658 270.061C391.258 270.423 390.574 270.91 389.604 271.347Z" fill="white"/>
</g>
<path id="MariaDB" d="M315.055 381.672C312.335 381.603 310.226 381.88 308.458 382.642C307.948 382.849 307.132 382.85 307.064 383.508C307.336 383.785 307.37 384.236 307.608 384.616C308.016 385.309 308.73 386.245 309.376 386.73C310.09 387.284 310.805 387.838 311.552 388.323C312.879 389.155 314.375 389.64 315.667 390.471C316.416 390.956 317.163 391.58 317.912 392.099C318.286 392.376 318.524 392.827 319 393V392.896C318.762 392.584 318.694 392.134 318.456 391.788C318.116 391.441 317.776 391.129 317.436 390.783C316.449 389.432 315.225 388.254 313.899 387.284C312.811 386.522 310.43 385.483 309.988 384.201C309.988 384.201 309.954 384.166 309.92 384.132C310.668 384.062 311.552 383.785 312.267 383.577C313.423 383.265 314.477 383.335 315.667 383.023C316.211 382.884 316.756 382.711 317.299 382.538V382.226C316.688 381.603 316.246 380.771 315.599 380.182C313.865 378.658 311.96 377.168 309.988 375.921C308.934 375.228 307.574 374.778 306.451 374.189C306.044 373.981 305.363 373.877 305.125 373.531C304.513 372.769 304.173 371.764 303.731 370.863C302.745 368.958 301.793 366.844 300.942 364.835C300.331 363.484 299.956 362.133 299.208 360.886C295.706 354.997 291.897 351.428 286.048 347.929C284.789 347.202 283.293 346.89 281.695 346.509C280.845 346.474 279.995 346.405 279.145 346.37C278.6 346.128 278.056 345.47 277.58 345.158C275.642 343.911 270.643 341.209 269.215 344.777C268.296 347.029 270.575 349.246 271.357 350.389C271.935 351.186 272.683 352.086 273.091 352.987C273.329 353.576 273.397 354.2 273.635 354.823C274.18 356.347 274.689 358.045 275.404 359.466C275.778 360.193 276.186 360.955 276.662 361.613C276.934 361.994 277.41 362.168 277.512 362.791C277.036 363.484 277.002 364.524 276.73 365.39C275.506 369.304 275.982 374.154 277.716 377.03C278.26 377.895 279.552 379.801 281.287 379.073C282.817 378.45 282.477 376.475 282.919 374.743C283.021 374.327 282.953 374.05 283.157 373.773V373.843C283.633 374.812 284.109 375.748 284.551 376.718C285.606 378.415 287.442 380.182 288.972 381.36C289.789 381.983 290.435 383.058 291.455 383.439V383.334H291.387C291.183 383.023 290.876 382.884 290.605 382.642C289.993 382.018 289.312 381.256 288.836 380.563C287.408 378.623 286.15 376.475 285.028 374.258C284.484 373.184 284.007 372.006 283.565 370.932C283.361 370.516 283.361 369.893 283.021 369.685C282.511 370.447 281.763 371.106 281.389 372.041C280.743 373.531 280.675 375.367 280.437 377.272C280.301 377.307 280.369 377.272 280.301 377.342C279.213 377.064 278.838 375.921 278.43 374.951C277.41 372.491 277.24 368.542 278.124 365.701C278.362 364.974 279.383 362.687 278.974 361.995C278.77 361.336 278.09 360.955 277.716 360.436C277.274 359.777 276.798 358.946 276.492 358.218C275.676 356.278 275.268 354.13 274.384 352.19C273.975 351.29 273.262 350.355 272.683 349.523C272.037 348.588 271.323 347.929 270.813 346.821C270.643 346.44 270.405 345.816 270.677 345.4C270.745 345.123 270.881 345.019 271.153 344.95C271.595 344.569 272.853 345.054 273.295 345.262C274.554 345.781 275.608 346.267 276.662 346.994C277.138 347.34 277.648 347.999 278.26 348.172H278.974C280.063 348.414 281.287 348.241 282.307 348.553C284.109 349.142 285.742 350.008 287.204 350.943C291.659 353.819 295.331 357.907 297.814 362.791C298.222 363.588 298.392 364.316 298.766 365.147C299.48 366.844 300.365 368.577 301.078 370.24C301.793 371.868 302.473 373.531 303.493 374.882C304.003 375.609 306.043 375.99 306.962 376.371C307.642 376.683 308.696 376.96 309.308 377.341C310.464 378.069 311.62 378.9 312.709 379.697C313.253 380.113 314.953 380.979 315.055 381.672V381.672Z" fill="#00546B"/>
</g>
<defs>
<linearGradient id="paint0_linear_11_809" x1="259.646" y1="277.658" x2="283.405" y2="295.551" gradientUnits="userSpaceOnUse">
<stop stop-color="#387EB8"/>
<stop offset="1" stop-color="#366994"/>
</linearGradient>
<linearGradient id="paint1_linear_11_809" x1="271.188" y1="293.373" x2="296.392" y2="311.497" gradientUnits="userSpaceOnUse">
<stop stop-color="#FFE052"/>
<stop offset="1" stop-color="#FFC331"/>
</linearGradient>
<linearGradient id="paint2_linear_11_809" x1="46.2906" y1="332.003" x2="51.3567" y2="333.829" gradientUnits="userSpaceOnUse">
<stop/>
<stop offset="1" stop-opacity="0"/>
</linearGradient>
<linearGradient id="paint3_linear_11_809" x1="16.6111" y1="115.561" x2="59.7943" y2="140.459" gradientUnits="userSpaceOnUse">
<stop stop-color="#2298BD"/>
<stop offset="1" stop-color="#0ED7B5"/>
</linearGradient>
<linearGradient id="paint4_linear_11_809" x1="404.249" y1="181.747" x2="386.895" y2="206.388" gradientUnits="userSpaceOnUse">
<stop offset="0.18" stop-color="#0052CC"/>
<stop offset="1" stop-color="#2684FF"/>
</linearGradient>
<clipPath id="clip0_11_809">
<rect width="50" height="50" fill="white" transform="translate(100 105)"/>
</clipPath>
<clipPath id="clip1_11_809">
<rect width="50" height="50" fill="white" transform="translate(75 189)"/>
</clipPath>
<clipPath id="clip2_11_809">
<rect width="50" height="50" fill="white" transform="translate(22 293)"/>
</clipPath>
<clipPath id="clip3_11_809">
<rect width="50" height="50" fill="white" transform="translate(275 189)"/>
</clipPath>
</defs>
</svg>
